<?xml version="1.0" encoding="UTF-8" standalone="no"?>
<!-- Created with Inkscape (http://www.inkscape.org/) -->

<svg
   xmlns:dc="http://purl.org/dc/elements/1.1/"
   xmlns:cc="http://creativecommons.org/ns#"
   xmlns:rdf="http://www.w3.org/1999/02/22-rdf-syntax-ns#"
   xmlns:svg="http://www.w3.org/2000/svg"
   xmlns="http://www.w3.org/2000/svg"
   xmlns:sodipodi="http://sodipodi.sourceforge.net/DTD/sodipodi-0.dtd"
   xmlns:inkscape="http://www.inkscape.org/namespaces/inkscape"
   width="56.462166mm"
   height="45.391068mm"
   viewBox="0 0 200.06279 160.83449"
   id="svg15563"
   version="1.1"
   inkscape:version="0.91 r13725"
   sodipodi:docname="bowerbird.svg">
  <defs
     id="defs15565" />
  <sodipodi:namedview
     id="base"
     pagecolor="#ffffff"
     bordercolor="#666666"
     borderopacity="1.0"
     inkscape:pageopacity="0.0"
     inkscape:pageshadow="2"
     inkscape:zoom="2.8"
     inkscape:cx="134.26467"
     inkscape:cy="87.52011"
     inkscape:document-units="px"
     inkscape:current-layer="layer1"
     showgrid="false"
     inkscape:window-width="1920"
     inkscape:window-height="982"
     inkscape:window-x="0"
     inkscape:window-y="25"
     inkscape:window-maximized="1"
     fit-margin-top="0"
     fit-margin-left="0"
     fit-margin-right="0"
     fit-margin-bottom="0" />
  <metadata
     id="metadata15568">
    <rdf:RDF>
      <cc:Work
         rdf:about="">
        <dc:format>image/svg+xml</dc:format>
        <dc:type
           rdf:resource="http://purl.org/dc/dcmitype/StillImage" />
        <dc:title />
      </cc:Work>
    </rdf:RDF>
  </metadata>
  <g
     inkscape:label="Layer 1"
     inkscape:groupmode="layer"
     id="layer1"
     transform="translate(-268.54003,-414.80213)">
    <path
       style="fill:#505050;fill-opacity:1;stroke:none;stroke-width:0.1;stroke-miterlimit:4;stroke-dasharray:none;stroke-opacity:1"
       d="m 307.44087,440.06971 c 33.48793,-1.94522 38.3566,-2.25529 38.3566,-2.25529 l -38.10263,4.8321 z"
       id="rect4157"
       inkscape:connector-curvature="0"
       sodipodi:nodetypes="cccc" />
    <g
       id="g15309"
       transform="matrix(-1.9984104,0.07972398,0.07972398,1.9984104,1330.0956,-114.86725)">
      <path
         inkscape:connector-curvature="0"
         id="path15047-3"
         d="m 504.77394,256.57403 c -0.497,0.53884 -0.95218,0.99615 -1.19922,1.20117 -1.66304,1.3802 -2.35906,5.72688 -0.75781,7.32813 2.66637,2.66637 13.96051,-0.21373 19.90429,-3.9043 0,0 2.5803,-1.09176 2.89723,-2.74544 -8.42628,-0.85146 -20.84449,-1.87956 -20.84449,-1.87956 z"
         style="fill:#cfd3d0"
         sodipodi:nodetypes="cssccc" />
      <path
         inkscape:connector-curvature="0"
         id="path15045-6"
         d="m 505.39308,256.62481 c -2.70476,5.55825 -3.65548,7.20225 -1.48438,8.4668 2.35796,1.37339 3.48292,0.83557 9.69922,-1.49024 5.53966,-2.07265 7.99093,-4.03889 7.27735,-5.51367 l -15.49219,-1.46289 z"
         style="fill:#d1cdb1" />
      <path
         inkscape:connector-curvature="0"
         id="path15043-1"
         d="m 506.11378,256.70294 c -1.67981,2.76482 -5.039,4.97094 -2.49219,8.13086 2.98992,0.67274 4.24058,-0.17167 11.36524,-2.24414 5.48883,-1.59663 5.42406,-3.73114 0.5,-4.13868 -2.12687,-0.17602 -3.07353,-0.38767 -3.55078,-1.19922 l -5.82227,-0.54882 z"
         style="fill:#9ea09f" />
      <path
         inkscape:connector-curvature="0"
         id="path15041-06"
         d="m 507.11573,256.79669 -0.8789,1.11718 c -2.27874,2.89695 -2.57922,5.32635 -0.75,6.06446 2.00773,0.81013 2.23127,0.76672 7.66211,-1.49024 3.23218,-1.34323 4.8285,-2.50743 4.24218,-3.09375 -0.58632,-0.58632 -1.70862,-0.52937 -2.98242,0.15235 -3.72048,1.99114 -6.17187,1.3796 -6.17187,-1.54102 l 0,-1.10156 -1.1211,-0.10742 z"
         style="fill:#99967d" />
      <path
         style="fill:#6a6d74"
         d="m 505.96025,263.50563 c -2.12299,-1.18808 -0.5195,-3.27565 0.041,-4.09457 0.49909,-0.72921 1.23483,-0.2578 1.23483,0.29266 0,0.55046 0.99583,1.36922 2.21295,1.81946 2.1702,0.80281 2.17453,0.83919 0.22418,1.88299 -1.30526,0.69855 -2.58135,0.73273 -3.71295,0.0995 z"
         id="path15039-3"
         inkscape:connector-curvature="0"
         sodipodi:nodetypes="csssscc" />
    </g>
    <g
       id="g4159"
       transform="matrix(-1,0,0,1,737.14285,0)">
      <path
         style="fill:#a1a1bc;fill-opacity:1"
         d="m 441.50057,482.89548 c -6.10329,0.66022 -9.17967,-0.41445 -10.70423,-3.73929 -1.448,-3.15789 -0.54165,-3.76634 5.45854,-3.66443 2.77089,0.0471 6.24581,-0.82993 13.21256,-3.33451 6.96675,-2.50458 10.20464,-4.04088 12.31131,-5.84143 4.56185,-3.89901 5.64814,-4.00692 6.54227,-0.64991 0.53001,1.98991 0.32045,3.50332 -0.69715,5.03486 -3.25931,4.9054 -16.68791,11.17405 -26.1233,12.19471 z m -3.26242,-9.07476 c -6.10328,0.66022 -9.17967,-0.41445 -10.70423,-3.73928 -1.448,-3.1579 -0.54165,-3.76635 5.45855,-3.66444 2.77088,0.0471 6.2458,-0.82993 13.21256,-3.33451 6.96675,-2.50457 10.20464,-4.04088 12.3113,-5.84143 4.56185,-3.89901 5.64814,-4.00692 6.54227,-0.64991 0.53001,1.98991 0.32046,3.50332 -0.69714,5.03486 -3.25931,4.9054 -16.68791,11.17405 -26.12331,12.19471 z m -3.26241,-9.07476 c -6.10329,0.66022 -9.17967,-0.41444 -10.70423,-3.73928 -1.448,-3.1579 -0.54165,-3.76634 5.45854,-3.66444 2.77089,0.0471 6.24581,-0.82993 13.21256,-3.3345 6.96675,-2.50458 10.20464,-4.04089 12.3113,-5.84144 4.56186,-3.89901 5.64815,-4.00692 6.54228,-0.64991 0.53001,1.98991 0.32045,3.50332 -0.69715,5.03486 -3.25931,4.90541 -16.68791,11.17406 -26.1233,12.19471 z m -3.26242,-9.07475 c -6.61189,0.71523 -9.22201,-0.3536 -10.66492,-4.36721 -1.03424,-2.87686 -0.9461,-3.61471 0.70002,-5.85971 2.46178,-3.35741 7.46375,-6.4107 14.85558,-9.06809 7.39183,-2.6574 13.19291,-3.48785 17.22891,-2.46642 2.69875,0.683 3.23651,1.19583 4.27075,4.07269 0.96065,2.67215 0.90998,3.70446 -0.26936,5.48754 -3.2448,4.90589 -16.67558,11.17945 -26.12098,12.2012 z"
         id="path15519"
         inkscape:connector-curvature="0" />
      <path
         style="fill:#5e5e94;fill-opacity:1"
         d="m 442.43396,481.75393 c -5.66722,0.76147 -9.5867,-0.27103 -10.88585,-2.86763 -1.12786,-2.25424 -0.76201,-2.45729 4.22929,-2.34731 2.8603,0.063 6.22298,-0.80009 13.97567,-3.58722 7.7527,-2.78713 10.89522,-4.26265 13.06065,-6.13245 3.78903,-3.27173 4.18853,-3.3414 4.77388,-0.83249 1.34753,5.77577 -11.71023,13.96079 -25.15364,15.7671 z m -3.26242,-9.07476 c -5.66721,0.76147 -9.58669,-0.27103 -10.88584,-2.86762 -1.12787,-2.25425 -0.76202,-2.4573 4.22929,-2.34731 2.8603,0.063 6.22297,-0.8001 13.97567,-3.58723 7.75269,-2.78713 10.89521,-4.26265 13.06065,-6.13245 3.78903,-3.27173 4.18853,-3.3414 4.77387,-0.83249 1.34754,5.77577 -11.71022,13.96079 -25.15364,15.7671 z m -3.26241,-9.07476 c -5.66722,0.76147 -9.5867,-0.27103 -10.88585,-2.86762 -1.12786,-2.25425 -0.76201,-2.4573 4.22929,-2.34731 2.8603,0.063 6.22298,-0.8001 13.97567,-3.58723 7.7527,-2.78712 10.89522,-4.26264 13.06065,-6.13245 3.78903,-3.27173 4.18853,-3.34139 4.77388,-0.83249 1.34753,5.77577 -11.71023,13.9608 -25.15364,15.7671 z m -3.26242,-9.07476 c -5.96821,0.80191 -9.59068,-0.24603 -10.98938,-3.17912 -2.25002,-4.71834 2.90398,-9.36398 15.35447,-13.83999 12.50076,-4.49407 19.37564,-4.17938 20.67015,0.94615 0.8273,3.27566 -1.81003,6.76945 -7.59673,10.06375 -5.64989,3.21641 -11.39996,5.19785 -17.43851,6.00921 z"
         id="path15517"
         inkscape:connector-curvature="0" />
      <path
         style="fill:#2828be;fill-opacity:1"
         d="m 445.98382,480.2827 c -5.56527,1.08951 -11.15964,1.02691 -12.45165,-0.13935 -2.149,-1.9398 -1.29839,-2.82711 2.64654,-2.76075 5.2659,0.0886 23.85023,-6.62952 27.19882,-9.83215 1.33878,-1.28043 2.66465,-2.03074 3.04863,-1.72522 1.50938,1.201 0.004,4.23227 -3.3108,6.66879 -3.67929,2.70403 -13.14784,7.00883 -17.13153,7.78872 z m -3.26242,-9.07476 c -5.56527,1.08952 -11.15964,1.02691 -12.45165,-0.13934 -2.14899,-1.9398 -1.29839,-2.82712 2.64654,-2.76076 5.2659,0.0886 23.85023,-6.62952 27.19883,-9.83215 1.33877,-1.28043 2.66465,-2.03074 3.04862,-1.72521 1.50939,1.20099 0.004,4.23227 -3.3108,6.66878 -3.67929,2.70403 -13.14783,7.00884 -17.13152,7.78872 z m -3.26241,-9.07475 c -5.56527,1.08951 -11.15964,1.0269 -12.45165,-0.13935 -2.149,-1.9398 -1.29839,-2.82711 2.64654,-2.76076 5.2659,0.0886 23.85023,-6.62952 27.19882,-9.83215 1.33878,-1.28043 2.66465,-2.03074 3.04863,-1.72521 1.50938,1.20099 0.004,4.23227 -3.3108,6.66878 -3.67929,2.70403 -13.14784,7.00884 -17.13153,7.78872 z m -5.09066,-8.77052 c -6.39614,1.08966 -10.06057,0.67639 -11.37531,-1.28286 -3.03259,-4.51927 1.95908,-9.31868 14.3101,-13.75893 12.87513,-4.62866 20.24513,-3.81218 19.74954,2.18795 -0.33063,4.003 -13.05563,11.21348 -22.68433,12.85384 z"
         id="path15515"
         inkscape:connector-curvature="0" />
    </g>
    <g
       id="g15225"
       transform="matrix(-2,0,0,2,1351.4957,-73.988326)">
      <path
         id="path15047-6"
         d="m 508.90234,247.0918 c -3.20148,-0.10988 -0.45365,1.61197 -1.44531,4.92187 -0.44113,1.47236 -1.64883,3.00356 -2.63476,4.07031 4.04528,-0.36719 17.37081,2.6267 20.16611,1.67556 0.96497,-1.44312 -3.92004,-5.35325 -3.92004,-5.35325 -1.63155,-1.60296 -6.98377,-4.72616 -10.40234,-5.1543 -0.72848,-0.0912 -1.30632,-0.14446 -1.76368,-0.16015 z"
         style="fill:#cfd3d0"
         inkscape:connector-curvature="0"
         sodipodi:nodetypes="cscccccc" />
      <path
         id="path15045-1"
         d="m 511.04688,249.14844 c -1.7471,0.0102 -2.86352,1.29543 -5,5.75 -0.24235,0.50529 -0.3867,0.80051 -0.60547,1.25 l 15.52148,1.46484 c -0.44432,-0.98332 -2.28185,-1.75178 -5.54492,-2.18945 -3.54445,-0.47542 -4.12109,-0.89081 -4.12109,-2.97852 0,-1.36358 0.43824,-2.15773 1,-1.81054 0.54999,0.33992 1,0.14105 1,-0.44141 0,-0.58246 -1.01251,-1.05192 -2.25,-1.04492 z"
         style="fill:#d1cdb1"
         inkscape:connector-curvature="0" />
      <path
         id="path15043-29"
         d="m 509.95703,249.56445 c -0.99148,0.0631 -2.45031,2.25364 -3.02734,4.88086 -0.13943,0.61731 -0.41603,1.19691 -0.75586,1.75586 l 5.82422,0.54883 c -0.2757,-0.46777 -0.39827,-1.13357 -0.49414,-2.11523 -0.16114,-1.65 -0.50386,-3.61189 -0.76172,-4.36133 -0.17692,-0.5142 -0.45466,-0.73003 -0.78516,-0.70899 z"
         style="fill:#9ea09f"
         inkscape:connector-curvature="0" />
      <path
         id="path15041-3"
         d="m 508.29688,254.86523 -1.11524,1.41797 1.11524,0.10547 0,-1.52344 z"
         style="fill:#99967d"
         inkscape:connector-curvature="0" />
    </g>
    <g
       id="g4168">
      <path
         style="fill:#525990"
         d="m 468.60284,548.95461 0,-26.46006 -12.29764,-12.91494 c -19.0389,-19.9946 -21.75832,-24.2337 -28.0665,-43.75064 -11.07642,-34.26934 -33.13748,-50.05292 -71.28702,-51.00224 -20.58892,-0.51236 -23.44786,7.04676 -19.89464,16.1385 2.65172,6.78506 14.04714,20.68626 9.28154,23.41402 -1.84858,3.05426 -20.1474,0.66436 -20.1474,0.66436 -1.1804,-0.1878 -2.98734,0.1546 -2.41306,3.56076 1.19568,7.09182 3.66842,36.15306 1.03832,58.6579 -2.49346,21.33568 -2.64812,42.39528 -0.37658,51.27738 l 1.75824,6.875 71.20238,0 71.20236,0 z"
         id="path5195"
         inkscape:connector-curvature="0"
         sodipodi:nodetypes="ccsssscsssscccc" />
      <rect
         y="521.08301"
         x="359.92395"
         height="54.285713"
         width="71.428574"
         id="rect4175"
         style="fill:#1d1c32;fill-opacity:1;stroke:none;stroke-width:0.1;stroke-miterlimit:4;stroke-dasharray:none;stroke-opacity:1" />
      <path
         style="fill:#525568"
         d="m 468.60284,550.47345 0,-24.94122 -13.90682,-14.43378 c -16.85576,-17.49448 -24.3722,-29.8065 -29.84782,-48.89106 -6.1218,-21.33678 -22.87734,-37.48148 -42.83784,-41.27614 -26.88126,-5.11034 -30.78946,-4.4754 -38.77626,-1.6912 -7.74218,3.07324 -4.05136,6.86922 -2.27592,15.99424 0,0 11.58884,19.72644 9.97114,22.35534 -1.16628,2.43032 -22.4109,-1.26758 -22.4109,-1.26758 -4.40756,-0.21218 -3.64686,8.04516 -3.3559,9.37216 2.12768,9.70344 3.85668,34.84182 2.05906,49.69706 -2.36816,19.57006 -2.56824,50.14008 -0.36574,55.87972 1.26542,3.29762 5.0706,4.14366 18.63678,4.14366 l 17.04668,0 0.61666,-8.125 c 0.33916,-4.46874 3.39096,-12.31964 6.78176,-17.4464 3.39082,-5.12676 6.16512,-12.25034 6.16512,-15.83014 l 0,-6.50876 18.125,1.40144 c 9.96876,0.77078 21.78126,1.42628 26.25,1.45664 8.58348,0.0584 10.06868,2.10854 5.11556,7.06166 -5.25744,5.25744 -9.27524,25.72786 -6.32192,32.2097 2.47884,5.44048 4.0087,5.78086 25.98264,5.78086 l 23.34872,0 z M 385.0573,458.89717 c -4.99604,-1.91716 -5.14364,-11.88338 -0.2363,-15.9561 8.30864,-6.89554 16.07618,6.67924 8.28184,14.47358 -3.50584,3.50584 -3.01064,3.4146 -8.04554,1.48252 z m 10.00388,116.44146 c -84.34743,0.19866 -42.17372,0.0993 0,0 z"
         id="path5193"
         inkscape:connector-curvature="0"
         sodipodi:nodetypes="ccssscccssssscssscsssssccsssscc" />
      <path
         style="fill:#2c325a"
         d="m 467.77208,549.27563 c -0.1488,-18.39232 -1.10054,-26.36098 -3.1485,-26.36098 -4.59018,0 -31.21284,-32.53362 -36.26228,-44.31348 -2.49718,-5.8257 -5.74102,-15.05122 -7.20854,-20.50112 -4.03488,-14.9844 -21.27258,-30.95474 -37.43902,-34.6864 -15.11552,-3.48908 -38.10516,-4.84268 -42.293,-0.74838 -5.53124,5.40768 2.87136,10.7378 8.67576,27.71208 2.60298,7.61212 3.46772,11.61388 -12.5953,7.83882 -4.85512,-1.14102 -10.13542,-2.13538 -10.82532,-1.0191 -0.68988,1.11626 -1.11226,8.5883 0.81836,19.54546 4.299,24.39872 4.42664,33.15154 0.74406,51.02164 -1.75342,8.50868 -2.1611,20.44604 -1.05102,30.77548 l 1.81354,16.875 16.051,0 16.05102,0 0,-9.66286 c 0,-6.14266 1.985,-12.18638 5.4488,-16.58986 2.99682,-3.80986 6.13698,-10.99282 6.97812,-15.96214 1.20298,-7.10712 2.57428,-8.90046 6.4262,-8.40398 2.69328,0.34714 18.02602,0.97878 34.07276,1.40364 19.26354,0.51002 30.50822,1.87822 33.09748,4.0271 5.82028,4.8304 1.98166,8.42426 -7.37606,6.90572 -10.89604,-1.76818 -15.90846,2.3539 -18.86544,15.51444 -3.52702,15.69766 -1.3598,20.23382 9.7616,20.43194 5.0636,0.0902 15.53634,0.70264 23.27278,1.36098 l 14.06624,1.19698 z m -86.41686,-92.30688 c -2.00496,-2.41584 -2.11496,-5.40512 -0.368,-10 3.43604,-9.03748 14.35224,-9.21614 16.59716,-0.27164 2.76058,10.999 -9.29374,18.6283 -16.22916,10.27164 z"
         id="path5191"
         inkscape:connector-curvature="0"
         sodipodi:nodetypes="sssssssssssscccsssssssssscsssss" />
      <path
         style="fill:#13121e"
         d="m 341.10284,571.75261 c 0,-2.01412 2.25,-4.8662 5,-6.33796 3.30136,-1.76684 5,-5.23456 5,-10.20734 0,-4.82222 2.24824,-9.615 6.25,-13.32372 3.4375,-3.18576 6.26722,-7.91328 6.28828,-10.50562 0.0862,-10.60424 3.18556,-11.71432 33.41872,-11.96928 l 28.94104,-0.24404 8.06652,-8.06362 8.0665,-8.0636 -5.12478,-6.9364 c -6.33406,-8.57312 -15.90628,-29.8908 -15.90628,-35.42384 0,-8.7861 -12.77452,-22.95588 -26.254,-29.12154 -14.83596,-6.78612 -20.07942,-7.55112 -22.69946,-3.3118 -2.46662,3.99106 6.12494,8.4208 16.33232,8.4208 7.64256,0 8.90734,0.95994 11.06498,8.39806 4.00158,13.79484 0.62996,16.18448 -27.45796,19.4608 -22.85606,2.66606 -25.06194,2.53942 -29.0263,-1.66644 -4.8397,-5.13452 -13.16612,-6.5692 -15.51836,-4.21698 -0.85634,0.85634 -1.08404,7.29244 0.5634,16.89966 3.65952,21.3406 3.8462,43.21732 0.46844,54.8914 -1.41928,4.90528 -1.81604,16.67838 -0.90516,26.8585 1.51454,16.9267 2.01216,18.125 7.52694,18.125 3.51932,0 5.90516,-1.47956 5.90516,-3.66204 z m 35.82248,-121.71308 c 1.97468,-7.5512 0.1284,-9.62488 -8.56962,-9.62488 -4.09862,0 -7.43036,-1.39662 -13.10246,-3.6758 -3.29946,-1.3258 -11.98516,-4.2483 -6.13664,9.66126 3.1403,7.46858 7.15092,7.88548 12.56808,8.09574 12.56976,0.48788 13.93542,0.53478 15.24064,-4.45632 z"
         id="path5189"
         inkscape:connector-curvature="0"
         sodipodi:nodetypes="sssssscccssssssssssssssssssss" />
      <g
         id="g15487"
         transform="matrix(-2,0,0,2,1257.6893,-219.09345)">
        <path
           style="fill:#dddddd;fill-opacity:1;stroke:none;stroke-width:0.49750313;stroke-miterlimit:4;stroke-dasharray:none;stroke-opacity:1"
           d="m 435.23904,334.8168 c -0.5973,-1.29751 0.20727,-1.96116 0.97233,-2.18254 0.56573,-0.1637 1.65548,0.98886 1.63754,1.94964 -0.0162,0.86646 -2.32777,0.79985 -2.60987,0.2329 z"
           id="path5185-3-3-6-2-9-2-9"
           inkscape:connector-curvature="0"
           sodipodi:nodetypes="cssc" />
        <path
           style="fill:#3f2875;fill-opacity:1;stroke:none;stroke-width:0.49750313;stroke-miterlimit:4;stroke-dasharray:none;stroke-opacity:1"
           d="m 435.42738,337.57921 c -1.11121,0.35553 -2.88631,-0.6754 -3.48365,-1.9729 -0.59729,-1.2975 -0.22975,-3.17804 1.22654,-3.79698 0.91596,-0.33871 2.13193,0.047 2.85861,0.87892 -0.84576,0.38489 -1.11529,1.35183 -0.82702,1.89008 0.30328,0.5663 1.39044,0.76856 2.06091,0.56553 0.0756,1.27203 -0.96311,2.15624 -1.83539,2.43532 z"
           id="path5185-3-3-6-2-7-3"
           inkscape:connector-curvature="0"
           sodipodi:nodetypes="csccscsc" />
      </g>
    </g>
  </g>
</svg>
