<?xml version="1.0" encoding="UTF-8" standalone="no"?>
<!-- Created with Inkscape (http://www.inkscape.org/) -->

<svg
   xmlns:dc="http://purl.org/dc/elements/1.1/"
   xmlns:cc="http://creativecommons.org/ns#"
   xmlns:rdf="http://www.w3.org/1999/02/22-rdf-syntax-ns#"
   xmlns:svg="http://www.w3.org/2000/svg"
   xmlns="http://www.w3.org/2000/svg"
   xmlns:sodipodi="http://sodipodi.sourceforge.net/DTD/sodipodi-0.dtd"
   xmlns:inkscape="http://www.inkscape.org/namespaces/inkscape"
   width="56.462166mm"
   height="45.391068mm"
   viewBox="0 0 200.06279 160.83449"
   id="svg15563"
   version="1.1"
   inkscape:version="0.91 r13725"
   sodipodi:docname="bowerbird.svg">
  <defs
     id="defs15565" />
  <sodipodi:namedview
     id="base"
     pagecolor="#ffffff"
     bordercolor="#666666"
     borderopacity="1.0"
     inkscape:pageopacity="0.0"
     inkscape:pageshadow="2"
     inkscape:zoom="2.8"
     inkscape:cx="55.981714"
     inkscape:cy="59.598621"
     inkscape:document-units="px"
     inkscape:current-layer="layer1"
     showgrid="false"
     inkscape:window-width="1920"
     inkscape:window-height="982"
     inkscape:window-x="0"
     inkscape:window-y="25"
     inkscape:window-maximized="1"
     fit-margin-top="0"
     fit-margin-left="0"
     fit-margin-right="0"
     fit-margin-bottom="0" />
  <metadata
     id="metadata15568">
    <rdf:RDF>
      <cc:Work
         rdf:about="">
        <dc:format>image/svg+xml</dc:format>
        <dc:type
           rdf:resource="http://purl.org/dc/dcmitype/StillImage" />
        <dc:title />
      </cc:Work>
    </rdf:RDF>
  </metadata>
  <g
     inkscape:label="Layer 1"
     inkscape:groupmode="layer"
     id="layer1"
     transform="translate(-268.54003,-414.80213)">
    <g
       id="g15309"
       transform="matrix(-1.9984104,0.07972398,0.07972398,1.9984104,1330.0956,-114.86725)">
      <path
         inkscape:connector-curvature="0"
         id="path15047-3"
         d="m 504.77394,256.57403 c -0.497,0.53884 -0.95218,0.99615 -1.19922,1.20117 -1.66304,1.3802 -2.35906,5.72688 -0.75781,7.32813 2.66637,2.66637 13.96051,-0.21373 19.90429,-3.9043 0,0 2.5803,-1.09176 2.89723,-2.74544 -8.42628,-0.85146 -20.84449,-1.87956 -20.84449,-1.87956 z"
         style="fill:#cfd3d0"
         sodipodi:nodetypes="cssccc" />
      <path
         inkscape:connector-curvature="0"
         id="path15045-6"
         d="m 505.39308,256.62481 c -2.70476,5.55825 -3.65548,7.20225 -1.48438,8.4668 2.35796,1.37339 3.48292,0.83557 9.69922,-1.49024 5.53966,-2.07265 7.99093,-4.03889 7.27735,-5.51367 l -15.49219,-1.46289 z"
         style="fill:#d1cdb1" />
      <path
         inkscape:connector-curvature="0"
         id="path15043-1"
         d="m 506.11378,256.70294 c -1.67981,2.76482 -5.039,4.97094 -2.49219,8.13086 2.98992,0.67274 4.24058,-0.17167 11.36524,-2.24414 5.48883,-1.59663 5.42406,-3.73114 0.5,-4.13868 -2.12687,-0.17602 -3.07353,-0.38767 -3.55078,-1.19922 l -5.82227,-0.54882 z"
         style="fill:#9ea09f" />
      <path
         inkscape:connector-curvature="0"
         id="path15041-06"
         d="m 507.11573,256.79669 -0.8789,1.11718 c -2.27874,2.89695 -2.57922,5.32635 -0.75,6.06446 2.00773,0.81013 2.23127,0.76672 7.66211,-1.49024 3.23218,-1.34323 4.8285,-2.50743 4.24218,-3.09375 -0.58632,-0.58632 -1.70862,-0.52937 -2.98242,0.15235 -3.72048,1.99114 -6.17187,1.3796 -6.17187,-1.54102 l 0,-1.10156 -1.1211,-0.10742 z"
         style="fill:#99967d" />
      <path
         style="fill:#6a6d74"
         d="m 505.96025,263.50563 c -2.12299,-1.18808 -0.5195,-3.27565 0.041,-4.09457 0.49909,-0.72921 1.23483,-0.2578 1.23483,0.29266 0,0.55046 0.99583,1.36922 2.21295,1.81946 2.1702,0.80281 2.17453,0.83919 0.22418,1.88299 -1.30526,0.69855 -2.58135,0.73273 -3.71295,0.0995 z"
         id="path15039-3"
         inkscape:connector-curvature="0"
         sodipodi:nodetypes="csssscc" />
    </g>
    <g
       id="g4159"
       transform="matrix(-1,0,0,1,737.14285,0)">
      <path
         style="fill:#a1a1bc;fill-opacity:1"
         d="m 441.50057,482.89548 c -6.10329,0.66022 -9.17967,-0.41445 -10.70423,-3.73929 -1.448,-3.15789 -0.54165,-3.76634 5.45854,-3.66443 2.77089,0.0471 6.24581,-0.82993 13.21256,-3.33451 6.96675,-2.50458 10.20464,-4.04088 12.31131,-5.84143 4.56185,-3.89901 5.64814,-4.00692 6.54227,-0.64991 0.53001,1.98991 0.32045,3.50332 -0.69715,5.03486 -3.25931,4.9054 -16.68791,11.17405 -26.1233,12.19471 z m -3.26242,-9.07476 c -6.10328,0.66022 -9.17967,-0.41445 -10.70423,-3.73928 -1.448,-3.1579 -0.54165,-3.76635 5.45855,-3.66444 2.77088,0.0471 6.2458,-0.82993 13.21256,-3.33451 6.96675,-2.50457 10.20464,-4.04088 12.3113,-5.84143 4.56185,-3.89901 5.64814,-4.00692 6.54227,-0.64991 0.53001,1.98991 0.32046,3.50332 -0.69714,5.03486 -3.25931,4.9054 -16.68791,11.17405 -26.12331,12.19471 z m -3.26241,-9.07476 c -6.10329,0.66022 -9.17967,-0.41444 -10.70423,-3.73928 -1.448,-3.1579 -0.54165,-3.76634 5.45854,-3.66444 2.77089,0.0471 6.24581,-0.82993 13.21256,-3.3345 6.96675,-2.50458 10.20464,-4.04089 12.3113,-5.84144 4.56186,-3.89901 5.64815,-4.00692 6.54228,-0.64991 0.53001,1.98991 0.32045,3.50332 -0.69715,5.03486 -3.25931,4.90541 -16.68791,11.17406 -26.1233,12.19471 z m -3.26242,-9.07475 c -6.61189,0.71523 -9.22201,-0.3536 -10.66492,-4.36721 -1.03424,-2.87686 -0.9461,-3.61471 0.70002,-5.85971 2.46178,-3.35741 7.46375,-6.4107 14.85558,-9.06809 7.39183,-2.6574 13.19291,-3.48785 17.22891,-2.46642 2.69875,0.683 3.23651,1.19583 4.27075,4.07269 0.96065,2.67215 0.90998,3.70446 -0.26936,5.48754 -3.2448,4.90589 -16.67558,11.17945 -26.12098,12.2012 z"
         id="path15519"
         inkscape:connector-curvature="0" />
      <path
         style="fill:#5e5e94;fill-opacity:1"
         d="m 442.43396,481.75393 c -5.66722,0.76147 -9.5867,-0.27103 -10.88585,-2.86763 -1.12786,-2.25424 -0.76201,-2.45729 4.22929,-2.34731 2.8603,0.063 6.22298,-0.80009 13.97567,-3.58722 7.7527,-2.78713 10.89522,-4.26265 13.06065,-6.13245 3.78903,-3.27173 4.18853,-3.3414 4.77388,-0.83249 1.34753,5.77577 -11.71023,13.96079 -25.15364,15.7671 z m -3.26242,-9.07476 c -5.66721,0.76147 -9.58669,-0.27103 -10.88584,-2.86762 -1.12787,-2.25425 -0.76202,-2.4573 4.22929,-2.34731 2.8603,0.063 6.22297,-0.8001 13.97567,-3.58723 7.75269,-2.78713 10.89521,-4.26265 13.06065,-6.13245 3.78903,-3.27173 4.18853,-3.3414 4.77387,-0.83249 1.34754,5.77577 -11.71022,13.96079 -25.15364,15.7671 z m -3.26241,-9.07476 c -5.66722,0.76147 -9.5867,-0.27103 -10.88585,-2.86762 -1.12786,-2.25425 -0.76201,-2.4573 4.22929,-2.34731 2.8603,0.063 6.22298,-0.8001 13.97567,-3.58723 7.7527,-2.78712 10.89522,-4.26264 13.06065,-6.13245 3.78903,-3.27173 4.18853,-3.34139 4.77388,-0.83249 1.34753,5.77577 -11.71023,13.9608 -25.15364,15.7671 z m -3.26242,-9.07476 c -5.96821,0.80191 -9.59068,-0.24603 -10.98938,-3.17912 -2.25002,-4.71834 2.90398,-9.36398 15.35447,-13.83999 12.50076,-4.49407 19.37564,-4.17938 20.67015,0.94615 0.8273,3.27566 -1.81003,6.76945 -7.59673,10.06375 -5.64989,3.21641 -11.39996,5.19785 -17.43851,6.00921 z"
         id="path15517"
         inkscape:connector-curvature="0" />
      <path
         style="fill:#2828be;fill-opacity:1"
         d="m 445.98382,480.2827 c -5.56527,1.08951 -11.15964,1.02691 -12.45165,-0.13935 -2.149,-1.9398 -1.29839,-2.82711 2.64654,-2.76075 5.2659,0.0886 23.85023,-6.62952 27.19882,-9.83215 1.33878,-1.28043 2.66465,-2.03074 3.04863,-1.72522 1.50938,1.201 0.004,4.23227 -3.3108,6.66879 -3.67929,2.70403 -13.14784,7.00883 -17.13153,7.78872 z m -3.26242,-9.07476 c -5.56527,1.08952 -11.15964,1.02691 -12.45165,-0.13934 -2.14899,-1.9398 -1.29839,-2.82712 2.64654,-2.76076 5.2659,0.0886 23.85023,-6.62952 27.19883,-9.83215 1.33877,-1.28043 2.66465,-2.03074 3.04862,-1.72521 1.50939,1.20099 0.004,4.23227 -3.3108,6.66878 -3.67929,2.70403 -13.14783,7.00884 -17.13152,7.78872 z m -3.26241,-9.07475 c -5.56527,1.08951 -11.15964,1.0269 -12.45165,-0.13935 -2.149,-1.9398 -1.29839,-2.82711 2.64654,-2.76076 5.2659,0.0886 23.85023,-6.62952 27.19882,-9.83215 1.33878,-1.28043 2.66465,-2.03074 3.04863,-1.72521 1.50938,1.20099 0.004,4.23227 -3.3108,6.66878 -3.67929,2.70403 -13.14784,7.00884 -17.13153,7.78872 z m -5.09066,-8.77052 c -6.39614,1.08966 -10.06057,0.67639 -11.37531,-1.28286 -3.03259,-4.51927 1.95908,-9.31868 14.3101,-13.75893 12.87513,-4.62866 20.24513,-3.81218 19.74954,2.18795 -0.33063,4.003 -13.05563,11.21348 -22.68433,12.85384 z"
         id="path15515"
         inkscape:connector-curvature="0" />
    </g>
    <g
       id="g15225"
       transform="matrix(-2,0,0,2,1351.4957,-73.988326)">
      <path
         id="path15047-6"
         d="m 508.90234,247.0918 c -3.20148,-0.10988 -0.45365,1.61197 -1.44531,4.92187 -0.44113,1.47236 -1.64883,3.00356 -2.63476,4.07031 4.04528,-0.36719 17.37081,2.6267 20.16611,1.67556 0.96497,-1.44312 -3.92004,-5.35325 -3.92004,-5.35325 -1.63155,-1.60296 -6.98377,-4.72616 -10.40234,-5.1543 -0.72848,-0.0912 -1.30632,-0.14446 -1.76368,-0.16015 z"
         style="fill:#cfd3d0"
         inkscape:connector-curvature="0"
         sodipodi:nodetypes="cscccccc" />
      <path
         id="path15045-1"
         d="m 511.04688,249.14844 c -1.7471,0.0102 -2.86352,1.29543 -5,5.75 -0.24235,0.50529 -0.3867,0.80051 -0.60547,1.25 l 15.52148,1.46484 c -0.44432,-0.98332 -2.28185,-1.75178 -5.54492,-2.18945 -3.54445,-0.47542 -4.12109,-0.89081 -4.12109,-2.97852 0,-1.36358 0.43824,-2.15773 1,-1.81054 0.54999,0.33992 1,0.14105 1,-0.44141 0,-0.58246 -1.01251,-1.05192 -2.25,-1.04492 z"
         style="fill:#d1cdb1"
         inkscape:connector-curvature="0" />
      <path
         id="path15043-29"
         d="m 509.95703,249.56445 c -0.99148,0.0631 -2.45031,2.25364 -3.02734,4.88086 -0.13943,0.61731 -0.41603,1.19691 -0.75586,1.75586 l 5.82422,0.54883 c -0.2757,-0.46777 -0.39827,-1.13357 -0.49414,-2.11523 -0.16114,-1.65 -0.50386,-3.61189 -0.76172,-4.36133 -0.17692,-0.5142 -0.45466,-0.73003 -0.78516,-0.70899 z"
         style="fill:#9ea09f"
         inkscape:connector-curvature="0" />
      <path
         id="path15041-3"
         d="m 508.29688,254.86523 -1.11524,1.41797 1.11524,0.10547 0,-1.52344 z"
         style="fill:#99967d"
         inkscape:connector-curvature="0" />
    </g>
    <g
       id="g5472"
       transform="matrix(-2,0,0,2,1273.2457,-39.488326)">
      <path
         style="fill:#525990"
         d="m 402.32143,294.22147 0,-13.23003 6.14882,-6.45747 c 9.51945,-9.9973 10.87916,-12.11685 14.03325,-21.87532 5.53821,-17.13467 16.56874,-25.02646 35.64351,-25.50112 10.29446,-0.25618 11.72393,3.52338 9.94732,8.06925 -1.32586,3.39253 -7.02357,10.34313 -4.64077,11.70701 0.92429,1.52713 10.0737,0.33218 10.0737,0.33218 0.5902,-0.0939 1.49367,0.0773 1.20653,1.78038 -0.59784,3.54591 -1.83421,18.07653 -0.51916,29.32895 1.24673,10.66784 1.32406,21.19764 0.18829,25.63869 l -0.87912,3.4375 -35.60119,0 -35.60118,0 z"
         id="path5195"
         inkscape:connector-curvature="0"
         sodipodi:nodetypes="ccsssscsssscccc" />
      <path
         style="fill:#525568"
         d="m 402.32143,294.98089 0,-12.47061 6.95341,-7.21689 c 8.42788,-8.74724 12.1861,-14.90325 14.92391,-24.44553 3.0609,-10.66839 11.43867,-18.74074 21.41892,-20.63807 13.44063,-2.55517 15.39473,-2.2377 19.38813,-0.8456 3.87109,1.53662 2.02568,3.43461 1.13796,7.99712 0,0 -5.79442,9.86322 -4.98557,11.17767 0.58314,1.21516 11.20545,-0.63379 11.20545,-0.63379 2.20378,-0.10609 1.82343,4.02258 1.67795,4.68608 -1.06384,4.85172 -1.92834,17.42091 -1.02953,24.84853 1.18408,9.78503 1.28412,25.07004 0.18287,27.93986 -0.63271,1.64881 -2.5353,2.07183 -9.31839,2.07183 l -8.52334,0 -0.30833,-4.0625 c -0.16958,-2.23437 -1.69548,-6.15982 -3.39088,-8.7232 -1.69541,-2.56338 -3.08256,-6.12517 -3.08256,-7.91507 l 0,-3.25438 -9.0625,0.70072 c -4.98438,0.38539 -10.89063,0.71314 -13.125,0.72832 -4.29174,0.0292 -5.03434,1.05427 -2.55778,3.53083 2.62872,2.62872 4.63762,12.86393 3.16096,16.10485 -1.23942,2.72024 -2.00435,2.89043 -12.99132,2.89043 l -11.67436,0 z m 41.77277,-45.78814 c 2.49802,-0.95858 2.57182,-5.94169 0.11815,-7.97805 -4.15432,-3.44777 -8.03809,3.33962 -4.14092,7.23679 1.75292,1.75292 1.50532,1.7073 4.02277,0.74126 z m -11.46029,56.90862 c 2.05442,-1.19658 13.1103,-0.64377 14.47799,0.72393 0.34441,0.3444 -3.26443,0.60908 -8.01964,0.58818 -6.48351,-0.0285 -8.09874,-0.35666 -6.45835,-1.31211 z"
         id="path5193"
         inkscape:connector-curvature="0"
         sodipodi:nodetypes="ccssscccssssscssscsssssccssssscss" />
      <path
         style="fill:#2c325a"
         d="m 402.73681,294.38198 c 0.0744,-9.19616 0.55027,-13.18049 1.57425,-13.18049 2.29509,0 15.60642,-16.26681 18.13114,-22.15674 1.24859,-2.91285 2.87051,-7.52561 3.60427,-10.25056 2.01744,-7.4922 10.63629,-15.47737 18.71951,-17.3432 7.55776,-1.74454 19.05258,-2.42134 21.1465,-0.37419 2.76562,2.70384 -1.43568,5.3689 -4.33788,13.85604 -1.30149,3.80606 -1.73386,5.80694 6.29765,3.91941 2.42756,-0.57051 5.06771,-1.06769 5.41266,-0.50955 0.34494,0.55813 0.55613,4.29415 -0.40918,9.77273 -2.1495,12.19936 -2.21332,16.57577 -0.37203,25.51082 0.87671,4.25434 1.08055,10.22302 0.52551,15.38774 l -0.90677,8.4375 -8.0255,0 -8.02551,0 0,-4.83143 c 0,-3.07133 -0.9925,-6.09319 -2.7244,-8.29493 -1.49841,-1.90493 -3.06849,-5.49641 -3.48906,-7.98107 -0.60149,-3.55356 -1.28714,-4.45023 -3.2131,-4.20199 -1.34664,0.17357 -9.01301,0.48939 -17.03638,0.70182 -9.63177,0.25501 -15.25411,0.93911 -16.54874,2.01355 -2.91014,2.4152 -0.99083,4.21213 3.68803,3.45286 5.44802,-0.88409 7.95423,1.17695 9.43272,7.75722 1.76351,7.84883 0.6799,10.11691 -4.8808,10.21597 -2.5318,0.0451 -7.76817,0.35132 -11.63639,0.68049 l -7.03312,0.59849 z m 43.20843,-46.15344 c 1.00248,-1.20792 1.05748,-2.70256 0.184,-5 -1.71802,-4.51874 -7.17612,-4.60807 -8.29858,-0.13582 -1.38029,5.4995 4.64687,9.31415 8.11458,5.13582 z m -9.87381,57.97295 c -1.5162,-0.97984 -1.3368,-1.21538 0.9375,-1.23086 1.54687,-0.0105 2.8125,0.54336 2.8125,1.23086 0,1.56615 -1.32655,1.56615 -3.75,0 z"
         id="path5191"
         inkscape:connector-curvature="0"
         sodipodi:nodetypes="sssssssssssscccsssssssssscsssssscss" />
      <path
         style="fill:#13121e"
         d="m 466.07143,305.62047 c 0,-1.00706 -1.125,-2.4331 -2.5,-3.16898 -1.65068,-0.88342 -2.5,-2.61728 -2.5,-5.10367 0,-2.41111 -1.12412,-4.8075 -3.125,-6.66186 -1.71875,-1.59288 -3.13361,-3.95664 -3.14414,-5.25281 -0.0431,-5.30212 -1.59278,-5.85716 -16.70936,-5.98464 l -14.47052,-0.12202 -4.03326,-4.03181 -4.03325,-4.0318 2.56239,-3.4682 c 3.16703,-4.28656 7.95314,-14.9454 7.95314,-17.71192 0,-4.39305 6.38726,-11.47794 13.127,-14.56077 7.41798,-3.39306 10.03971,-3.77556 11.34973,-1.6559 1.23331,1.99553 -3.06247,4.2104 -8.16616,4.2104 -3.82128,0 -4.45367,0.47997 -5.53249,4.19903 -2.00079,6.89742 -0.31498,8.09224 13.72898,9.7304 11.42803,1.33303 12.53097,1.26971 14.51315,-0.83322 2.41985,-2.56726 6.58306,-3.2846 7.75918,-2.10849 0.42817,0.42817 0.54202,3.64622 -0.2817,8.44983 -1.82976,10.6703 -1.9231,21.60866 -0.23422,27.4457 0.70964,2.45264 0.90802,8.33919 0.45258,13.42925 -0.75727,8.46335 -1.00608,9.0625 -3.76347,9.0625 -1.75966,0 -2.95258,-0.73978 -2.95258,-1.83102 z m -17.91124,-60.85654 c -0.98734,-3.7756 -0.0642,-4.81244 4.28481,-4.81244 2.04931,0 3.71518,-0.69831 6.55123,-1.8379 1.64973,-0.6629 5.99258,-2.12415 3.06832,4.83063 -1.57015,3.73429 -3.57546,3.94274 -6.28404,4.04787 -6.28488,0.24394 -6.96771,0.26739 -7.62032,-2.22816 z"
         id="path5189"
         inkscape:connector-curvature="0"
         sodipodi:nodetypes="sssssscccssssssssssssssssssss" />
    </g>
    <g
       transform="matrix(-2,0,0,2,1257.6893,-219.09345)"
       id="g15487">
      <path
         sodipodi:nodetypes="cssc"
         inkscape:connector-curvature="0"
         id="path5185-3-3-6-2-9-2-9"
         d="m 435.23904,334.8168 c -0.5973,-1.29751 0.20727,-1.96116 0.97233,-2.18254 0.56573,-0.1637 1.65548,0.98886 1.63754,1.94964 -0.0162,0.86646 -2.32777,0.79985 -2.60987,0.2329 z"
         style="fill:#dddddd;fill-opacity:1;stroke:none;stroke-width:0.49750313;stroke-miterlimit:4;stroke-dasharray:none;stroke-opacity:1" />
      <path
         sodipodi:nodetypes="csccscsc"
         inkscape:connector-curvature="0"
         id="path5185-3-3-6-2-7-3"
         d="m 435.42738,337.57921 c -1.11121,0.35553 -2.88631,-0.6754 -3.48365,-1.9729 -0.59729,-1.2975 -0.22975,-3.17804 1.22654,-3.79698 0.91596,-0.33871 2.13193,0.047 2.85861,0.87892 -0.84576,0.38489 -1.11529,1.35183 -0.82702,1.89008 0.30328,0.5663 1.39044,0.76856 2.06091,0.56553 0.0756,1.27203 -0.96311,2.15624 -1.83539,2.43532 z"
         style="fill:#3f2875;fill-opacity:1;stroke:none;stroke-width:0.49750313;stroke-miterlimit:4;stroke-dasharray:none;stroke-opacity:1" />
    </g>
  </g>
</svg>
